<svg width="33" height="33" viewBox="0 0 33 33" fill="none" xmlns="http://www.w3.org/2000/svg">
<path d="M24.75 16.5V23.375C24.75 25.6532 21.0563 27.5 16.5 27.5C11.9436 27.5 8.25 25.6532 8.25 23.375V16.5M24.75 16.5V9.625M24.75 16.5C24.75 18.7782 21.0563 20.625 16.5 20.625C11.9436 20.625 8.25 18.7782 8.25 16.5M8.25 16.5V9.625M24.75 9.625C24.75 7.34683 21.0563 5.5 16.5 5.5C11.9436 5.5 8.25 7.34683 8.25 9.625M24.75 9.625C24.75 11.9032 21.0563 13.75 16.5 13.75C11.9436 13.75 8.25 11.9032 8.25 9.625" stroke="white" stroke-width="2.75" stroke-linecap="round" stroke-linejoin="round"/>
</svg>
